<svg xmlns="http://www.w3.org/2000/svg" xmlns:xlink="http://www.w3.org/1999/xlink" width="500" zoomAndPan="magnify" viewBox="0 0 375 374.999991" height="500" preserveAspectRatio="xMidYMid meet" version="1.0"><defs><g/><clipPath id="1b857aab67"><path d="M 122.417969 107.804688 L 252.917969 107.804688 L 252.917969 206.804688 L 122.417969 206.804688 Z M 122.417969 107.804688 " clip-rule="nonzero"/></clipPath></defs><g clip-path="url(#1b857aab67)"><path fill="#ffffff" d="M 248.71875 181.542969 L 241.980469 181.542969 L 241.980469 120.992188 C 241.980469 113.71875 236.039062 107.800781 228.742188 107.800781 L 146.589844 107.800781 C 139.292969 107.800781 133.351562 113.71875 133.351562 120.992188 L 133.351562 181.542969 L 126.613281 181.542969 C 124.359375 181.542969 122.53125 183.363281 122.53125 185.609375 L 122.53125 196.539062 C 122.53125 202.203125 127.15625 206.808594 132.835938 206.808594 L 242.496094 206.808594 C 248.175781 206.808594 252.800781 202.203125 252.800781 196.539062 L 252.800781 185.609375 C 252.800781 183.363281 250.972656 181.542969 248.71875 181.542969 Z M 141.515625 120.992188 C 141.515625 118.203125 143.792969 115.9375 146.589844 115.9375 L 228.742188 115.9375 C 231.539062 115.9375 233.816406 118.203125 233.816406 120.992188 L 233.816406 181.542969 L 141.515625 181.542969 Z M 244.636719 196.539062 C 244.636719 197.714844 243.675781 198.671875 242.496094 198.671875 L 132.835938 198.671875 C 131.65625 198.671875 130.695312 197.714844 130.695312 196.539062 L 130.695312 189.675781 L 174.496094 189.675781 C 174.835938 191.582031 176.5 193.027344 178.511719 193.027344 L 196.820312 193.027344 C 198.832031 193.027344 200.496094 191.582031 200.835938 189.675781 L 244.636719 189.675781 Z M 244.636719 196.539062 " fill-opacity="1" fill-rule="nonzero"/></g><path fill="#ffffff" d="M 172.582031 135.746094 C 170.988281 134.15625 168.40625 134.15625 166.8125 135.746094 L 154.871094 147.644531 C 154.105469 148.40625 153.675781 149.441406 153.675781 150.519531 C 153.675781 151.597656 154.105469 152.632812 154.871094 153.394531 L 166.8125 165.296875 C 167.609375 166.089844 168.652344 166.488281 169.699219 166.488281 C 170.742188 166.488281 171.785156 166.089844 172.582031 165.296875 C 174.175781 163.707031 174.175781 161.132812 172.582031 159.542969 L 163.53125 150.519531 L 172.582031 141.496094 C 174.175781 139.910156 174.175781 137.332031 172.582031 135.746094 Z M 172.582031 135.746094 " fill-opacity="1" fill-rule="nonzero"/><path fill="#ffffff" d="M 208.519531 135.746094 C 206.925781 134.15625 204.34375 134.15625 202.75 135.746094 C 201.15625 137.332031 201.15625 139.910156 202.75 141.496094 L 211.800781 150.519531 L 202.75 159.542969 C 201.15625 161.132812 201.15625 163.707031 202.75 165.296875 C 203.546875 166.089844 204.589844 166.488281 205.636719 166.488281 C 206.679688 166.488281 207.722656 166.089844 208.519531 165.296875 L 220.460938 153.394531 C 221.226562 152.632812 221.65625 151.597656 221.65625 150.519531 C 221.65625 149.441406 221.226562 148.40625 220.460938 147.644531 Z M 208.519531 135.746094 " fill-opacity="1" fill-rule="nonzero"/><path fill="#ffffff" d="M 195.074219 131.539062 C 192.972656 130.726562 190.605469 131.761719 189.789062 133.855469 L 177.933594 164.234375 C 177.117188 166.328125 178.160156 168.6875 180.257812 169.5 C 180.746094 169.6875 181.246094 169.777344 181.738281 169.777344 C 183.371094 169.777344 184.914062 168.792969 185.542969 167.183594 L 197.398438 136.804688 C 198.214844 134.710938 197.171875 132.355469 195.074219 131.539062 Z M 195.074219 131.539062 " fill-opacity="1" fill-rule="nonzero"/><g fill="#ff00ff" fill-opacity="1"><g transform="translate(86.972713, 247.022797)"><g><path d="M 2.078125 -21.0625 L 2.078125 -22.015625 L 7.96875 -22.015625 L 17.1875 -2.4375 L 16.125 0 L 11.96875 0 Z M 20.15625 -9.25 L 20.03125 -9.25 L 17.890625 -4.0625 L 15.140625 -9.953125 L 20.15625 -22.015625 L 26.234375 -22.015625 L 26.234375 0 L 20.15625 0 Z M 2.078125 -17.890625 L 7.96875 -5.34375 L 7.96875 0 L 2.078125 0 Z M 2.078125 -17.890625 "/></g></g></g><g fill="#ff00ff" fill-opacity="1"><g transform="translate(116.69375, 247.022797)"><g><path d="M 2.078125 -22.015625 L 8.484375 -22.015625 L 8.484375 0 L 2.078125 0 Z M 11.109375 -7.484375 L 9.828125 -7.484375 L 9.828125 -12.390625 L 10.90625 -12.390625 C 11.570312 -12.390625 12.070312 -12.414062 12.40625 -12.46875 C 12.75 -12.519531 13.019531 -12.617188 13.21875 -12.765625 C 13.382812 -12.910156 13.5 -13.132812 13.5625 -13.4375 C 13.625 -13.738281 13.65625 -14.175781 13.65625 -14.75 C 13.65625 -15.320312 13.625 -15.765625 13.5625 -16.078125 C 13.5 -16.390625 13.382812 -16.617188 13.21875 -16.765625 C 13.039062 -16.910156 12.785156 -17.003906 12.453125 -17.046875 C 12.128906 -17.097656 11.613281 -17.125 10.90625 -17.125 L 9.828125 -17.125 L 9.828125 -22.015625 L 13.125 -22.015625 C 14.632812 -22.015625 15.859375 -21.863281 16.796875 -21.5625 C 17.734375 -21.269531 18.457031 -20.8125 18.96875 -20.1875 C 19.445312 -19.613281 19.765625 -18.898438 19.921875 -18.046875 C 20.078125 -17.191406 20.15625 -16.09375 20.15625 -14.75 C 20.15625 -13.019531 20 -11.6875 19.6875 -10.75 C 19.238281 -9.550781 18.445312 -8.707031 17.3125 -8.21875 L 20.640625 0 L 13.921875 0 Z M 11.109375 -7.484375 "/></g></g></g><g fill="#ff00ff" fill-opacity="1"><g transform="translate(139.664455, 247.022797)"><g><path d="M 2.046875 -5.21875 L 8.515625 -5.21875 L 8.515625 0 L 2.046875 0 Z M 2.046875 -5.21875 "/></g></g></g><g fill="#ff00ff" fill-opacity="1"><g transform="translate(151.629859, 247.022797)"><g/></g></g><g fill="#ff00ff" fill-opacity="1"><g transform="translate(161.355814, 247.022797)"><g><path d="M 17.25 -16.953125 C 16.539062 -17.046875 15.300781 -17.164062 13.53125 -17.3125 C 12.550781 -17.351562 11.765625 -17.375 11.171875 -17.375 C 10.398438 -17.375 9.671875 -17.351562 8.984375 -17.3125 L 8.984375 -22.265625 L 9.796875 -22.265625 C 11.546875 -22.265625 13.359375 -22.148438 15.234375 -21.921875 C 15.828125 -21.835938 16.5 -21.71875 17.25 -21.5625 Z M 11.96875 -6.5 C 11.96875 -6.945312 11.9375 -7.269531 11.875 -7.46875 C 11.8125 -7.675781 11.703125 -7.816406 11.546875 -7.890625 C 11.398438 -7.960938 11.144531 -8.019531 10.78125 -8.0625 L 6.84375 -8.546875 C 4.519531 -8.796875 2.953125 -9.550781 2.140625 -10.8125 C 1.773438 -11.34375 1.53125 -11.992188 1.40625 -12.765625 C 1.28125 -13.535156 1.21875 -14.472656 1.21875 -15.578125 C 1.21875 -17.953125 1.828125 -19.660156 3.046875 -20.703125 C 4.023438 -21.554688 5.554688 -22.054688 7.640625 -22.203125 L 7.640625 -15.78125 C 7.640625 -15.5 7.648438 -15.257812 7.671875 -15.0625 C 7.703125 -14.875 7.75 -14.726562 7.8125 -14.625 C 7.875 -14.5 7.976562 -14.40625 8.125 -14.34375 C 8.28125 -14.289062 8.503906 -14.253906 8.796875 -14.234375 L 13.21875 -13.703125 C 14.132812 -13.566406 14.878906 -13.398438 15.453125 -13.203125 C 16.023438 -13.015625 16.515625 -12.71875 16.921875 -12.3125 C 17.890625 -11.3125 18.375 -9.53125 18.375 -6.96875 C 18.375 -4.257812 17.773438 -2.363281 16.578125 -1.28125 C 16.046875 -0.789062 15.398438 -0.429688 14.640625 -0.203125 C 13.878906 0.015625 12.988281 0.15625 11.96875 0.21875 Z M 10.265625 0.25 C 8.140625 0.25 6.15625 0.15625 4.3125 -0.03125 C 3.226562 -0.132812 2.410156 -0.242188 1.859375 -0.359375 L 1.859375 -5.03125 C 3.117188 -4.914062 4.554688 -4.804688 6.171875 -4.703125 C 7.203125 -4.660156 7.929688 -4.640625 8.359375 -4.640625 C 9.503906 -4.640625 10.257812 -4.671875 10.625 -4.734375 L 10.625 0.25 Z M 10.265625 0.25 "/></g></g></g><g fill="#ff00ff" fill-opacity="1"><g transform="translate(182.343007, 247.022797)"><g><path d="M 2.078125 -22.015625 L 8.484375 -22.015625 L 8.484375 0 L 2.078125 0 Z M 14.4375 -8.484375 L 9.828125 -8.484375 L 9.828125 -13.59375 L 14.4375 -13.59375 L 14.4375 -22.015625 L 20.828125 -22.015625 L 20.828125 0 L 14.4375 0 Z M 14.4375 -8.484375 "/></g></g></g><g fill="#ff00ff" fill-opacity="1"><g transform="translate(206.657374, 247.022797)"><g><path d="M 7.078125 -22.015625 L 7.609375 -22.015625 L 10.140625 -13.25 L 6.46875 0 L 0.0625 0 Z M 14.265625 -3.90625 L 8.921875 -3.90625 L 10.265625 -8.828125 L 12.828125 -8.828125 L 9.0625 -22.015625 L 14.90625 -22.015625 L 21.921875 0 L 15.390625 0 Z M 14.265625 -3.90625 "/></g></g></g><g fill="#ff00ff" fill-opacity="1"><g transform="translate(230.04397, 247.022797)"><g><path d="M 2.078125 -22.015625 L 8.484375 -22.015625 L 8.484375 0 L 2.078125 0 Z M 14.4375 -8.484375 L 9.828125 -8.484375 L 9.828125 -13.59375 L 14.4375 -13.59375 L 14.4375 -22.015625 L 20.828125 -22.015625 L 20.828125 0 L 14.4375 0 Z M 14.4375 -8.484375 "/></g></g></g><g fill="#ff00ff" fill-opacity="1"><g transform="translate(254.358337, 247.022797)"><g><path d="M 2.078125 -22.015625 L 8.484375 -22.015625 L 8.484375 0 L 2.078125 0 Z M 2.078125 -22.015625 "/></g></g></g><g fill="#ff00ff" fill-opacity="1"><g transform="translate(266.323741, 247.022797)"><g><path d="M 2.078125 -21.125 L 2.078125 -22.015625 L 8.484375 -22.015625 L 20.828125 -0.921875 L 20.828125 0 L 14.46875 0 Z M 14.75 -13.984375 L 14.75 -22.015625 L 20.828125 -22.015625 L 20.828125 -3.578125 Z M 2.078125 -18.46875 L 8.15625 -8.0625 L 8.15625 0 L 2.078125 0 Z M 2.078125 -18.46875 "/></g></g></g><g fill="#00ffff" fill-opacity="1"><g transform="translate(85.772713, 247.022797)"><g><path d="M 2.078125 -21.0625 L 2.078125 -22.015625 L 7.96875 -22.015625 L 17.1875 -2.4375 L 16.125 0 L 11.96875 0 Z M 20.15625 -9.25 L 20.03125 -9.25 L 17.890625 -4.0625 L 15.140625 -9.953125 L 20.15625 -22.015625 L 26.234375 -22.015625 L 26.234375 0 L 20.15625 0 Z M 2.078125 -17.890625 L 7.96875 -5.34375 L 7.96875 0 L 2.078125 0 Z M 2.078125 -17.890625 "/></g></g></g><g fill="#00ffff" fill-opacity="1"><g transform="translate(115.49375, 247.022797)"><g><path d="M 2.078125 -22.015625 L 8.484375 -22.015625 L 8.484375 0 L 2.078125 0 Z M 11.109375 -7.484375 L 9.828125 -7.484375 L 9.828125 -12.390625 L 10.90625 -12.390625 C 11.570312 -12.390625 12.070312 -12.414062 12.40625 -12.46875 C 12.75 -12.519531 13.019531 -12.617188 13.21875 -12.765625 C 13.382812 -12.910156 13.5 -13.132812 13.5625 -13.4375 C 13.625 -13.738281 13.65625 -14.175781 13.65625 -14.75 C 13.65625 -15.320312 13.625 -15.765625 13.5625 -16.078125 C 13.5 -16.390625 13.382812 -16.617188 13.21875 -16.765625 C 13.039062 -16.910156 12.785156 -17.003906 12.453125 -17.046875 C 12.128906 -17.097656 11.613281 -17.125 10.90625 -17.125 L 9.828125 -17.125 L 9.828125 -22.015625 L 13.125 -22.015625 C 14.632812 -22.015625 15.859375 -21.863281 16.796875 -21.5625 C 17.734375 -21.269531 18.457031 -20.8125 18.96875 -20.1875 C 19.445312 -19.613281 19.765625 -18.898438 19.921875 -18.046875 C 20.078125 -17.191406 20.15625 -16.09375 20.15625 -14.75 C 20.15625 -13.019531 20 -11.6875 19.6875 -10.75 C 19.238281 -9.550781 18.445312 -8.707031 17.3125 -8.21875 L 20.640625 0 L 13.921875 0 Z M 11.109375 -7.484375 "/></g></g></g><g fill="#00ffff" fill-opacity="1"><g transform="translate(138.464455, 247.022797)"><g><path d="M 2.046875 -5.21875 L 8.515625 -5.21875 L 8.515625 0 L 2.046875 0 Z M 2.046875 -5.21875 "/></g></g></g><g fill="#00ffff" fill-opacity="1"><g transform="translate(150.429859, 247.022797)"><g/></g></g><g fill="#00ffff" fill-opacity="1"><g transform="translate(160.155814, 247.022797)"><g><path d="M 17.25 -16.953125 C 16.539062 -17.046875 15.300781 -17.164062 13.53125 -17.3125 C 12.550781 -17.351562 11.765625 -17.375 11.171875 -17.375 C 10.398438 -17.375 9.671875 -17.351562 8.984375 -17.3125 L 8.984375 -22.265625 L 9.796875 -22.265625 C 11.546875 -22.265625 13.359375 -22.148438 15.234375 -21.921875 C 15.828125 -21.835938 16.5 -21.71875 17.25 -21.5625 Z M 11.96875 -6.5 C 11.96875 -6.945312 11.9375 -7.269531 11.875 -7.46875 C 11.8125 -7.675781 11.703125 -7.816406 11.546875 -7.890625 C 11.398438 -7.960938 11.144531 -8.019531 10.78125 -8.0625 L 6.84375 -8.546875 C 4.519531 -8.796875 2.953125 -9.550781 2.140625 -10.8125 C 1.773438 -11.34375 1.53125 -11.992188 1.40625 -12.765625 C 1.28125 -13.535156 1.21875 -14.472656 1.21875 -15.578125 C 1.21875 -17.953125 1.828125 -19.660156 3.046875 -20.703125 C 4.023438 -21.554688 5.554688 -22.054688 7.640625 -22.203125 L 7.640625 -15.78125 C 7.640625 -15.5 7.648438 -15.257812 7.671875 -15.0625 C 7.703125 -14.875 7.75 -14.726562 7.8125 -14.625 C 7.875 -14.5 7.976562 -14.40625 8.125 -14.34375 C 8.28125 -14.289062 8.503906 -14.253906 8.796875 -14.234375 L 13.21875 -13.703125 C 14.132812 -13.566406 14.878906 -13.398438 15.453125 -13.203125 C 16.023438 -13.015625 16.515625 -12.71875 16.921875 -12.3125 C 17.890625 -11.3125 18.375 -9.53125 18.375 -6.96875 C 18.375 -4.257812 17.773438 -2.363281 16.578125 -1.28125 C 16.046875 -0.789062 15.398438 -0.429688 14.640625 -0.203125 C 13.878906 0.015625 12.988281 0.15625 11.96875 0.21875 Z M 10.265625 0.25 C 8.140625 0.25 6.15625 0.15625 4.3125 -0.03125 C 3.226562 -0.132812 2.410156 -0.242188 1.859375 -0.359375 L 1.859375 -5.03125 C 3.117188 -4.914062 4.554688 -4.804688 6.171875 -4.703125 C 7.203125 -4.660156 7.929688 -4.640625 8.359375 -4.640625 C 9.503906 -4.640625 10.257812 -4.671875 10.625 -4.734375 L 10.625 0.25 Z M 10.265625 0.25 "/></g></g></g><g fill="#00ffff" fill-opacity="1"><g transform="translate(181.143007, 247.022797)"><g><path d="M 2.078125 -22.015625 L 8.484375 -22.015625 L 8.484375 0 L 2.078125 0 Z M 14.4375 -8.484375 L 9.828125 -8.484375 L 9.828125 -13.59375 L 14.4375 -13.59375 L 14.4375 -22.015625 L 20.828125 -22.015625 L 20.828125 0 L 14.4375 0 Z M 14.4375 -8.484375 "/></g></g></g><g fill="#00ffff" fill-opacity="1"><g transform="translate(205.457375, 247.022797)"><g><path d="M 7.078125 -22.015625 L 7.609375 -22.015625 L 10.140625 -13.25 L 6.46875 0 L 0.0625 0 Z M 14.265625 -3.90625 L 8.921875 -3.90625 L 10.265625 -8.828125 L 12.828125 -8.828125 L 9.0625 -22.015625 L 14.90625 -22.015625 L 21.921875 0 L 15.390625 0 Z M 14.265625 -3.90625 "/></g></g></g><g fill="#00ffff" fill-opacity="1"><g transform="translate(228.84397, 247.022797)"><g><path d="M 2.078125 -22.015625 L 8.484375 -22.015625 L 8.484375 0 L 2.078125 0 Z M 14.4375 -8.484375 L 9.828125 -8.484375 L 9.828125 -13.59375 L 14.4375 -13.59375 L 14.4375 -22.015625 L 20.828125 -22.015625 L 20.828125 0 L 14.4375 0 Z M 14.4375 -8.484375 "/></g></g></g><g fill="#00ffff" fill-opacity="1"><g transform="translate(253.158337, 247.022797)"><g><path d="M 2.078125 -22.015625 L 8.484375 -22.015625 L 8.484375 0 L 2.078125 0 Z M 2.078125 -22.015625 "/></g></g></g><g fill="#00ffff" fill-opacity="1"><g transform="translate(265.123741, 247.022797)"><g><path d="M 2.078125 -21.125 L 2.078125 -22.015625 L 8.484375 -22.015625 L 20.828125 -0.921875 L 20.828125 0 L 14.46875 0 Z M 14.75 -13.984375 L 14.75 -22.015625 L 20.828125 -22.015625 L 20.828125 -3.578125 Z M 2.078125 -18.46875 L 8.15625 -8.0625 L 8.15625 0 L 2.078125 0 Z M 2.078125 -18.46875 "/></g></g></g><g fill="#ffffff" fill-opacity="1"><g transform="translate(86.372713, 247.022797)"><g><path d="M 2.078125 -21.0625 L 2.078125 -22.015625 L 7.96875 -22.015625 L 17.1875 -2.4375 L 16.125 0 L 11.96875 0 Z M 20.15625 -9.25 L 20.03125 -9.25 L 17.890625 -4.0625 L 15.140625 -9.953125 L 20.15625 -22.015625 L 26.234375 -22.015625 L 26.234375 0 L 20.15625 0 Z M 2.078125 -17.890625 L 7.96875 -5.34375 L 7.96875 0 L 2.078125 0 Z M 2.078125 -17.890625 "/></g></g></g><g fill="#ffffff" fill-opacity="1"><g transform="translate(116.09375, 247.022797)"><g><path d="M 2.078125 -22.015625 L 8.484375 -22.015625 L 8.484375 0 L 2.078125 0 Z M 11.109375 -7.484375 L 9.828125 -7.484375 L 9.828125 -12.390625 L 10.90625 -12.390625 C 11.570312 -12.390625 12.070312 -12.414062 12.40625 -12.46875 C 12.75 -12.519531 13.019531 -12.617188 13.21875 -12.765625 C 13.382812 -12.910156 13.5 -13.132812 13.5625 -13.4375 C 13.625 -13.738281 13.65625 -14.175781 13.65625 -14.75 C 13.65625 -15.320312 13.625 -15.765625 13.5625 -16.078125 C 13.5 -16.390625 13.382812 -16.617188 13.21875 -16.765625 C 13.039062 -16.910156 12.785156 -17.003906 12.453125 -17.046875 C 12.128906 -17.097656 11.613281 -17.125 10.90625 -17.125 L 9.828125 -17.125 L 9.828125 -22.015625 L 13.125 -22.015625 C 14.632812 -22.015625 15.859375 -21.863281 16.796875 -21.5625 C 17.734375 -21.269531 18.457031 -20.8125 18.96875 -20.1875 C 19.445312 -19.613281 19.765625 -18.898438 19.921875 -18.046875 C 20.078125 -17.191406 20.15625 -16.09375 20.15625 -14.75 C 20.15625 -13.019531 20 -11.6875 19.6875 -10.75 C 19.238281 -9.550781 18.445312 -8.707031 17.3125 -8.21875 L 20.640625 0 L 13.921875 0 Z M 11.109375 -7.484375 "/></g></g></g><g fill="#ffffff" fill-opacity="1"><g transform="translate(139.064455, 247.022797)"><g><path d="M 2.046875 -5.21875 L 8.515625 -5.21875 L 8.515625 0 L 2.046875 0 Z M 2.046875 -5.21875 "/></g></g></g><g fill="#ffffff" fill-opacity="1"><g transform="translate(151.029859, 247.022797)"><g/></g></g><g fill="#ffffff" fill-opacity="1"><g transform="translate(160.755814, 247.022797)"><g><path d="M 17.25 -16.953125 C 16.539062 -17.046875 15.300781 -17.164062 13.53125 -17.3125 C 12.550781 -17.351562 11.765625 -17.375 11.171875 -17.375 C 10.398438 -17.375 9.671875 -17.351562 8.984375 -17.3125 L 8.984375 -22.265625 L 9.796875 -22.265625 C 11.546875 -22.265625 13.359375 -22.148438 15.234375 -21.921875 C 15.828125 -21.835938 16.5 -21.71875 17.25 -21.5625 Z M 11.96875 -6.5 C 11.96875 -6.945312 11.9375 -7.269531 11.875 -7.46875 C 11.8125 -7.675781 11.703125 -7.816406 11.546875 -7.890625 C 11.398438 -7.960938 11.144531 -8.019531 10.78125 -8.0625 L 6.84375 -8.546875 C 4.519531 -8.796875 2.953125 -9.550781 2.140625 -10.8125 C 1.773438 -11.34375 1.53125 -11.992188 1.40625 -12.765625 C 1.28125 -13.535156 1.21875 -14.472656 1.21875 -15.578125 C 1.21875 -17.953125 1.828125 -19.660156 3.046875 -20.703125 C 4.023438 -21.554688 5.554688 -22.054688 7.640625 -22.203125 L 7.640625 -15.78125 C 7.640625 -15.5 7.648438 -15.257812 7.671875 -15.0625 C 7.703125 -14.875 7.75 -14.726562 7.8125 -14.625 C 7.875 -14.5 7.976562 -14.40625 8.125 -14.34375 C 8.28125 -14.289062 8.503906 -14.253906 8.796875 -14.234375 L 13.21875 -13.703125 C 14.132812 -13.566406 14.878906 -13.398438 15.453125 -13.203125 C 16.023438 -13.015625 16.515625 -12.71875 16.921875 -12.3125 C 17.890625 -11.3125 18.375 -9.53125 18.375 -6.96875 C 18.375 -4.257812 17.773438 -2.363281 16.578125 -1.28125 C 16.046875 -0.789062 15.398438 -0.429688 14.640625 -0.203125 C 13.878906 0.015625 12.988281 0.15625 11.96875 0.21875 Z M 10.265625 0.25 C 8.140625 0.25 6.15625 0.15625 4.3125 -0.03125 C 3.226562 -0.132812 2.410156 -0.242188 1.859375 -0.359375 L 1.859375 -5.03125 C 3.117188 -4.914062 4.554688 -4.804688 6.171875 -4.703125 C 7.203125 -4.660156 7.929688 -4.640625 8.359375 -4.640625 C 9.503906 -4.640625 10.257812 -4.671875 10.625 -4.734375 L 10.625 0.25 Z M 10.265625 0.25 "/></g></g></g><g fill="#ffffff" fill-opacity="1"><g transform="translate(181.743007, 247.022797)"><g><path d="M 2.078125 -22.015625 L 8.484375 -22.015625 L 8.484375 0 L 2.078125 0 Z M 14.4375 -8.484375 L 9.828125 -8.484375 L 9.828125 -13.59375 L 14.4375 -13.59375 L 14.4375 -22.015625 L 20.828125 -22.015625 L 20.828125 0 L 14.4375 0 Z M 14.4375 -8.484375 "/></g></g></g><g fill="#ffffff" fill-opacity="1"><g transform="translate(206.057374, 247.022797)"><g><path d="M 7.078125 -22.015625 L 7.609375 -22.015625 L 10.140625 -13.25 L 6.46875 0 L 0.0625 0 Z M 14.265625 -3.90625 L 8.921875 -3.90625 L 10.265625 -8.828125 L 12.828125 -8.828125 L 9.0625 -22.015625 L 14.90625 -22.015625 L 21.921875 0 L 15.390625 0 Z M 14.265625 -3.90625 "/></g></g></g><g fill="#ffffff" fill-opacity="1"><g transform="translate(229.44397, 247.022797)"><g><path d="M 2.078125 -22.015625 L 8.484375 -22.015625 L 8.484375 0 L 2.078125 0 Z M 14.4375 -8.484375 L 9.828125 -8.484375 L 9.828125 -13.59375 L 14.4375 -13.59375 L 14.4375 -22.015625 L 20.828125 -22.015625 L 20.828125 0 L 14.4375 0 Z M 14.4375 -8.484375 "/></g></g></g><g fill="#ffffff" fill-opacity="1"><g transform="translate(253.758337, 247.022797)"><g><path d="M 2.078125 -22.015625 L 8.484375 -22.015625 L 8.484375 0 L 2.078125 0 Z M 2.078125 -22.015625 "/></g></g></g><g fill="#ffffff" fill-opacity="1"><g transform="translate(265.723741, 247.022797)"><g><path d="M 2.078125 -21.125 L 2.078125 -22.015625 L 8.484375 -22.015625 L 20.828125 -0.921875 L 20.828125 0 L 14.46875 0 Z M 14.75 -13.984375 L 14.75 -22.015625 L 20.828125 -22.015625 L 20.828125 -3.578125 Z M 2.078125 -18.46875 L 8.15625 -8.0625 L 8.15625 0 L 2.078125 0 Z M 2.078125 -18.46875 "/></g></g></g></svg>